<svg xmlns="http://www.w3.org/2000/svg" viewBox="0 0 64 64" width="64" height="64" fill="none"><defs><linearGradient id="bg" x1="8" y1="8" x2="56" y2="56" gradientUnits="userSpaceOnUse"><stop stop-color="#2563eb"/><stop offset="1" stop-color="#7c3aed"/></linearGradient></defs><rect x="4" y="4" width="56" height="56" rx="14" fill="url(#bg)"/><path d="M18 21c0-2.761 2.239-5 5-5h18c2.761 0 5 2.239 5 5v12c0 2.761-2.239 5-5 5H29l-7.5 6a1 1 0 0 1-1.625-.78V38A5 5 0 0 1 18 33V21Z" fill="#fff"/><circle cx="26" cy="27" r="2.5" fill="#2563eb"/><circle cx="32" cy="27" r="2.5" fill="#2563eb"/><circle cx="38" cy="27" r="2.5" fill="#2563eb"/></svg>